<svg width="104" height="103" viewBox="0 0 104 103" fill="none" xmlns="http://www.w3.org/2000/svg">
<path d="M103.467 22.2846V21.6648C91.1594 20.1374 83.8858 12.8766 82.3557 0.59082H81.7348C80.2047 12.8766 72.9311 20.1374 60.6237 21.6648V22.2846C72.9311 23.812 80.2047 31.0728 81.7348 43.3586H82.3557C83.8858 31.0728 91.1594 23.812 103.467 22.2846ZM0.206497 61.0014C24.5552 64.012 38.936 78.3676 41.9519 102.673H43.1716C46.1874 78.3676 60.5683 64.012 84.917 61.0014V59.7839C60.5683 56.7734 46.1874 42.4178 43.1716 18.1119H41.9519C38.936 42.4178 24.5441 56.7734 0.206497 59.7839V61.0014Z" fill="#FC9C0C"/>
</svg>
